<?xml version="1.0" encoding="utf-8"?>
<!-- Generator: Adobe Illustrator 16.0.0, SVG Export Plug-In . SVG Version: 6.00 Build 0)  -->
<!DOCTYPE svg PUBLIC "-//W3C//DTD SVG 1.1//EN" "http://www.w3.org/Graphics/SVG/1.1/DTD/svg11.dtd">
<svg version="1.1" id="Layer_1" xmlns="http://www.w3.org/2000/svg" xmlns:xlink="http://www.w3.org/1999/xlink" x="0px" y="0px"
	 width="182px" height="189px" viewBox="0 0 182 189" enable-background="new 0 0 182 189" xml:space="preserve">
<g>
	<linearGradient id="SVGID_1_" gradientUnits="userSpaceOnUse" x1="78.4102" y1="72.8477" x2="180" y2="72.8477">
		<stop  offset="0" style="stop-color:#F2944D"/>
		<stop  offset="0.5" style="stop-color:#EC6F23"/>
		<stop  offset="1" style="stop-color:#D15B27"/>
	</linearGradient>
	<path fill="url(#SVGID_1_)" d="M78.41,44.301c0,0,85.419,51.338,81.24,78.156c0,0,58.812-17.18-23.523-95.141l-33.481-4.077
		L78.41,44.301z"/>
	<linearGradient id="SVGID_2_" gradientUnits="userSpaceOnUse" x1="27.6196" y1="48.4326" x2="136.1265" y2="48.4326">
		<stop  offset="0" style="stop-color:#EE7C5A"/>
		<stop  offset="0.5" style="stop-color:#E21F26"/>
		<stop  offset="1" style="stop-color:#CA2027"/>
	</linearGradient>
	<path fill="url(#SVGID_2_)" d="M44.858,93.865c0,0,65.064-74.893,91.268-66.549c0,0,0.637-57.314-104.758,4.045L27.62,66.933
		L44.858,93.865z"/>
	<linearGradient id="SVGID_3_" gradientUnits="userSpaceOnUse" x1="5.9277" y1="78.0381" x2="72.2271" y2="78.0381">
		<stop  offset="0" style="stop-color:#EE7E7C"/>
		<stop  offset="0.5" style="stop-color:#E6324F"/>
		<stop  offset="1" style="stop-color:#D91E3C"/>
	</linearGradient>
	<path fill="url(#SVGID_3_)" d="M72.227,131.021c0,0-43.841-88.616-25.644-108.982c0,0-53.113-23.383-37.924,96.3l31.63,17.544
		L72.227,131.021z"/>
	<linearGradient id="SVGID_4_" gradientUnits="userSpaceOnUse" x1="2.6841" y1="139.4658" x2="121.5894" y2="139.4658">
		<stop  offset="0" style="stop-color:#6DBB84"/>
		<stop  offset="0.5" style="stop-color:#0A9748"/>
		<stop  offset="1" style="stop-color:#0B8743"/>
	</linearGradient>
	<path fill="url(#SVGID_4_)" d="M121.589,114.23c0,0-98.599,16.763-113.373-6.136c0,0-37.606,43.732,83.282,62.743l25.923-25.034
		L121.589,114.23z"/>
	<linearGradient id="SVGID_5_" gradientUnits="userSpaceOnUse" x1="78.8281" y1="129.1816" x2="159.7495" y2="129.1816">
		<stop  offset="0" style="stop-color:#FFEAA8"/>
		<stop  offset="0.5" style="stop-color:#FECC07"/>
		<stop  offset="1" style="stop-color:#F6AE1B"/>
	</linearGradient>
	<path fill="url(#SVGID_5_)" d="M119.982,72.847c0,0-14.355,89.405-41.154,95.658c0,0,22.995,60.259,80.822-46.049
		c0,0,2.463-11.749-17.08-30.1C137.846,86.606,119.982,72.847,119.982,72.847z"/>
</g>
</svg>
